<?xml version="1.0" encoding="utf-8"?>
<!-- Generator: Adobe Illustrator 24.0.3, SVG Export Plug-In . SVG Version: 6.00 Build 0)  -->
<svg version="1.1" id="Layer_1" xmlns="http://www.w3.org/2000/svg" xmlns:xlink="http://www.w3.org/1999/xlink" x="0px" y="0px"
	 viewBox="0 0 1024 1024" style="enable-background:new 0 0 1024 1024;" xml:space="preserve">
<style type="text/css">
	.st0{fill:#FFFFFF;}
</style>
<path class="st0" d="M942.1,274.7c-12.1-7.1-27.8-6.4-42.9,1.9l-92.9,51.2V224.9c0-17.4-7-31.3-19-38.3c-12.2-7-27.8-6.1-42.8,2.6
	L663,236v-97.4c0-17.4-7-31.3-19.1-38.4c-12.1-7.1-27.7-6.2-42.8,2.3l-80.7,45.7V50.5c0-17.3-6.9-31.3-19-38.3
	c-12.2-7-27.6-6-42.8,2.6L92.4,224.9c-15.1,8.7-23.6,21.6-23.8,35.6c0,14,8.5,27,23.5,35.9l82,48l-87.4,49.4
	c-15.1,8.6-23.8,21.5-23.9,35.5c-0.1,13.9,8.6,26.9,23.7,35.6l89.3,51.5l-83.4,48c-15.1,8.6-23.7,21.6-23.7,35.6
	c0,14,8.7,27,23.7,35.6l82.4,47.5l-82.6,48c-15,8.7-23.6,21.7-23.5,35.7c0,14,8.7,27,23.7,35.6l359.7,207c8.4,4.8,16.9,7.3,24.9,7.3
	c6.5,0,12.4-1.6,17.8-4.7c12.1-7,19-20.9,19-38.3v-95.6l87.3,50.2c8.4,4.8,16.9,7.3,25,7.3c6.3,0,12.4-1.6,17.7-4.7
	c12.1-7,19.1-20.9,19.1-38.3V792l81.4,47.5c8.5,4.9,17,7.4,25.1,7.4c6.3,0,12.3-1.5,17.7-4.6c12-7,19-20.9,19-38.3v-98.8l93.1,54
	c8.5,4.9,17,7.3,25,7.3c6.4,0,12.4-1.5,17.7-4.6c12.1-7,19-21,19-38.3V313.2C961.1,295.9,954.2,281.9,942.1,274.7z M759.6,215.7
	c6.2-3.6,10.5-3.7,12.2-2.7c1.8,1,3.8,4.7,3.8,11.9v119.7l-247,135.9c-16.9,9.3-46.3,8.9-63-0.9l-81.7-47.8L759.6,215.7z
	 M616.2,129.1c6.3-3.5,10.5-3.6,12.4-2.5c1.7,1.1,3.9,4.8,3.9,12v114.9L353.6,414l-118.3-69.2L616.2,129.1z M107.6,269.9
	c-6.2-3.6-8.3-7.2-8.3-9.3c0-2.1,2.3-5.7,8.5-9.3L473.8,41.2c6.2-3.6,10.4-3.6,12.2-2.6c1.8,1,3.9,4.7,3.9,11.9v115l-285,161.4
	L107.6,269.9z M93.4,429.3c0-2.1,2.6-5.7,8.4-9l102.8-58.2L450.2,506c9.5,5.6,21.1,9.2,33.2,10.7c-0.1,0.3-0.2,0.6-0.2,1v140.2
	L101.8,438.3C96,435,93.4,431.3,93.4,429.3z M99.3,599.8c0-2,2.2-5.6,8.4-9.1l98.8-56.9l276.8,159.3v131.9L218,672.4
	c-2.4-2.8-5.6-4.6-9-5.2L107.7,609C101.5,605.4,99.3,601.8,99.3,599.8z M483.3,973.5c0,7.1-2,10.9-3.7,11.9c-1.7,1-6,0.9-12.3-2.7
	L107.7,775.7c-6.2-3.5-8.4-7.2-8.4-9.2c0-2,2.2-5.7,8.4-9.3l97.7-56.8l277.9,159.9V973.5z M628.7,904.3c-1.8,1-6.1,0.9-12.3-2.7
	l-102.6-59v-325c0-0.4,0-0.8-0.1-1.2c10.7-1.5,20.9-4.5,29.6-9.2l89.1-49v434.2C632.4,899.5,630.3,903.2,628.7,904.3z M771.9,815.9
	c-1.7,1-5.9,0.8-12.1-2.8L663,756.6V441.4l112.6-62v424.7C775.6,811.3,773.6,814.9,771.9,815.9z M930.5,723.6c0,7.1-2,10.9-3.7,11.9
	c-1.8,1-6,0.9-12.1-2.7L806.2,670V362.6l107.7-59.2c5.3-2.9,10.1-3.8,12.6-2.3c2.5,1.5,4,6.2,4,12.2V723.6z"/>
</svg>
